<?xml version="1.0" standalone="no"?>
<!DOCTYPE svg PUBLIC "-//W3C//DTD SVG 20010904//EN"
 "http://www.w3.org/TR/2001/REC-SVG-20010904/DTD/svg10.dtd">
<svg version="1.0" xmlns="http://www.w3.org/2000/svg"
 width="512.000000pt" height="512.000000pt" viewBox="0 0 512.000000 512.000000"
 preserveAspectRatio="xMidYMid meet">
<metadata>
Created by potrace 1.14, written by Peter Selinger 2001-2017
</metadata>
<g transform="translate(0.000000,512.000000) scale(0.100000,-0.100000)"
fill="#000000" stroke="none">
<path d="M2408 5114 c-3 -3 -50 -13 -104 -23 -98 -18 -219 -64 -311 -116 -27
-16 -66 -37 -88 -48 -45 -22 -88 -56 -156 -122 -26 -25 -53 -45 -60 -45 -8 0
-45 -27 -82 -60 -38 -33 -72 -60 -76 -60 -7 0 -22 -13 -112 -97 -15 -13 -32
-45 -39 -71 -7 -26 -20 -58 -29 -72 -9 -13 -34 -58 -56 -100 -22 -41 -49 -79
-61 -84 -26 -12 -47 -70 -45 -126 2 -56 -18 -158 -36 -185 -21 -31 -16 -69 12
-93 14 -12 25 -28 25 -34 0 -31 -13 -55 -33 -64 -14 -6 -21 -16 -19 -29 11
-65 16 -82 35 -102 14 -16 18 -30 14 -53 -5 -23 -3 -30 9 -30 13 0 14 -8 9
-39 -6 -34 -3 -43 15 -58 55 -45 53 -38 47 -179 -4 -108 -3 -134 10 -146 9
-10 13 -30 11 -61 l-3 -46 -24 18 c-22 17 -23 21 -12 51 9 28 8 36 -6 52 -25
28 -30 123 -8 148 13 14 16 28 11 55 -13 69 -77 101 -84 42 -2 -17 1 -26 9
-25 6 2 14 -3 16 -9 3 -9 -6 -13 -26 -13 -21 0 -31 5 -31 15 0 11 -11 15 -36
15 -52 0 -68 21 -61 80 7 54 -12 95 -33 73 -18 -17 -3 -153 16 -153 8 0 14 -7
14 -15 0 -9 9 -15 21 -15 11 0 27 -7 35 -15 9 -8 33 -15 55 -15 39 0 39 0 39
-40 0 -26 -5 -40 -13 -40 -7 0 -19 -9 -27 -20 -15 -21 -70 -28 -70 -10 0 6 -4
10 -10 10 -5 0 -10 -15 -10 -34 0 -20 -6 -36 -14 -39 -20 -8 -86 56 -86 82 0
17 -6 21 -30 21 -29 0 -30 -2 -30 -45 0 -53 -17 -75 -74 -99 -52 -21 -53 -21
-66 19 -10 29 -9 38 5 51 15 15 17 15 28 0 11 -16 15 -16 45 -1 25 13 32 23
32 46 0 19 5 29 15 29 10 0 15 11 15 35 0 19 -4 35 -10 35 -5 0 -10 7 -10 15
0 8 -7 15 -15 15 -8 0 -15 -4 -15 -10 0 -5 -10 -10 -22 -9 l-23 0 22 11 c25
12 31 38 10 38 -7 0 -18 9 -25 20 -12 20 -62 28 -62 10 0 -5 -7 -10 -15 -10
-8 0 -15 4 -15 9 0 5 -11 12 -25 15 -14 4 -25 11 -25 16 0 6 -7 10 -15 10 -8
0 -15 7 -15 16 0 11 -5 14 -16 10 -14 -5 -16 -1 -11 24 6 27 4 30 -16 26 -12
-3 -52 -7 -89 -11 -37 -3 -75 -8 -83 -11 -11 -4 -15 0 -15 17 0 18 -3 20 -12
11 -16 -16 -43 -15 -61 2 -7 8 -25 16 -38 18 -14 2 -25 11 -27 22 -3 15 0 18
17 13 18 -4 21 -1 21 24 0 16 5 29 10 29 6 0 10 9 10 19 0 16 -10 21 -55 26
-30 4 -55 11 -55 15 0 21 14 40 28 40 28 0 82 24 82 36 0 7 -12 22 -26 33 -19
15 -24 26 -19 41 4 11 4 34 0 50 -5 21 -11 28 -26 25 -32 -6 -39 -15 -39 -47
0 -19 -8 -38 -22 -50 l-23 -20 -3 31 c-3 30 -32 46 -32 18 0 -7 -9 -19 -20
-27 -21 -15 -27 -56 -9 -62 6 -2 8 -14 3 -32 -6 -27 -8 -27 -55 -21 l-49 7 0
-1386 0 -1387 32 17 c17 9 43 27 57 40 75 69 195 147 413 268 29 15 76 47 105
70 28 22 74 57 100 76 26 19 63 52 83 73 19 20 42 37 50 37 15 1 210 124 243
155 37 33 85 55 143 66 65 11 84 28 84 73 0 40 -10 54 -38 52 -16 -1 -28 8
-40 29 -9 17 -20 32 -24 33 -5 2 -8 28 -8 58 0 30 -4 54 -10 54 -5 0 -10 -25
-10 -55 l0 -55 -51 0 c-28 0 -60 5 -71 11 -12 6 -43 12 -70 12 -31 1 -48 5
-48 13 0 7 -6 15 -12 17 -7 3 -1 6 15 6 15 1 27 6 27 11 0 6 7 10 15 10 17 0
22 65 5 75 -6 4 -8 21 -4 41 6 34 6 34 -30 34 -29 0 -36 4 -36 19 0 17 8 19
62 18 39 0 63 4 66 11 2 7 10 12 18 12 8 0 14 5 14 11 0 11 25 39 35 39 10 0
40 34 54 63 17 32 27 34 41 6 9 -16 14 -18 26 -8 20 16 17 36 -6 42 -13 3 -20
14 -20 30 0 14 -7 32 -15 41 -8 8 -15 24 -15 35 0 11 -4 23 -10 26 -18 11 -11
31 15 43 34 16 34 52 1 52 -35 0 -56 10 -56 26 0 8 -5 14 -11 14 -17 0 -37 25
-45 55 -7 27 -8 27 -21 10 -8 -12 -11 -31 -7 -52 4 -22 1 -37 -9 -48 -17 -17
-47 -20 -47 -5 0 6 -11 10 -25 10 -28 0 -33 20 -10 44 8 8 15 19 15 25 0 6 7
11 15 11 9 0 15 9 15 25 0 14 5 25 10 25 6 0 10 -7 10 -15 0 -9 6 -12 15 -9 8
4 15 15 15 26 0 28 18 58 35 58 8 0 15 -4 15 -8 0 -10 94 -112 103 -112 14 0
6 26 -13 43 -13 11 -20 29 -20 51 0 39 14 53 35 36 12 -10 22 -10 45 0 34 14
39 36 11 45 -24 7 -30 24 -24 58 7 34 21 35 33 2 6 -17 17 -25 33 -25 19 0 28
-9 41 -43 9 -23 16 -53 16 -66 0 -13 11 -38 24 -55 62 -80 87 -97 156 -106
l45 -5 -2 -45 c-12 -217 -12 -297 -2 -317 12 -23 6 -53 -11 -53 -5 0 -10 9
-10 20 0 11 -4 20 -10 20 -15 0 -12 -54 5 -86 8 -16 15 -45 15 -64 0 -68 61
-149 285 -380 104 -107 127 -133 245 -275 128 -155 337 -371 425 -440 44 -34
109 -76 145 -92 71 -32 150 -99 150 -127 0 -14 -6 -16 -37 -10 -57 10 -77 20
-114 52 -19 16 -47 36 -64 45 -16 8 -58 38 -93 66 -67 54 -68 54 -120 51 -43
-2 -62 15 -62 55 0 24 -12 48 -39 83 -54 68 -87 78 -205 62 -176 -24 -564
-111 -681 -153 -36 -12 -41 -18 -45 -53 -7 -57 4 -121 27 -152 17 -23 28 -27
75 -28 67 -1 78 -7 78 -44 0 -30 34 -63 62 -59 30 4 46 -2 77 -30 27 -25 37
-28 55 -20 33 15 96 -44 96 -90 0 -50 17 -74 47 -66 20 5 32 0 55 -22 24 -23
32 -25 47 -16 27 17 54 6 73 -28 13 -22 24 -29 48 -29 30 0 40 16 21 35 -5 6
-12 28 -16 50 l-7 40 20 -31 c26 -40 95 -94 120 -94 11 0 28 -7 36 -16 19 -18
18 -16 7 -47 -8 -20 -15 -23 -40 -19 -32 4 -41 -8 -18 -26 6 -5 26 -11 43 -14
27 -3 33 0 42 24 7 18 17 28 31 28 24 0 29 -28 6 -36 -8 -4 -15 -12 -15 -20 0
-11 9 -13 40 -8 54 9 71 -7 68 -60 -3 -36 0 -41 17 -39 37 4 75 -18 75 -44 0
-21 2 -22 21 -12 12 6 51 38 86 71 60 55 83 65 83 33 0 -7 12 -27 26 -44 22
-27 32 -31 75 -31 45 0 49 -2 49 -24 0 -61 -78 -56 962 -56 856 0 949 2 937
16 -7 8 -25 22 -40 30 -15 7 -31 24 -35 36 -4 13 -19 35 -33 50 -14 15 -33 35
-42 45 -9 10 -24 23 -33 28 -16 9 -17 15 -6 51 9 31 10 54 1 93 -6 29 -11 69
-11 90 0 42 -19 64 -63 75 -40 9 -30 25 31 48 51 19 62 31 41 43 -5 4 -15 18
-20 32 -9 23 -13 25 -49 19 -52 -8 -54 12 -5 51 19 15 35 34 35 40 0 7 14 19
30 28 35 18 34 13 15 59 -9 20 -13 41 -10 46 9 15 61 12 100 -4 19 -8 69 -20
112 -26 42 -5 78 -12 81 -14 2 -3 18 0 35 6 l31 11 -25 10 c-13 5 -37 10 -54
11 -25 1 -30 5 -31 26 -1 14 -6 38 -13 53 -6 16 -11 48 -11 72 0 64 -27 115
-45 85 -3 -5 -13 -6 -21 -3 -15 6 -16 14 -3 123 1 8 6 21 11 27 10 12 1 139
-9 129 -8 -8 -31 18 -26 30 2 7 -9 27 -26 46 -27 31 -30 41 -37 141 -3 58 -10
104 -15 102 -10 -7 -29 59 -29 105 -1 19 -8 53 -16 75 -8 22 -17 51 -19 65 -5
33 5 71 16 64 24 -14 5 19 -32 56 -31 31 -40 47 -35 63 3 13 -3 50 -14 84 -12
39 -17 75 -13 97 4 25 1 42 -9 54 -33 37 -50 84 -43 119 5 30 2 40 -20 63 -20
20 -27 40 -30 80 -2 34 -13 65 -29 91 -14 21 -26 45 -26 53 0 7 -7 19 -15 26
-11 9 -14 22 -9 46 5 28 1 38 -23 61 -26 25 -29 34 -27 81 1 28 7 59 14 67 10
12 10 18 0 30 -7 8 -19 15 -26 15 -8 0 -14 7 -14 15 0 8 -6 15 -14 15 -24 0
-46 30 -46 63 0 27 -7 36 -39 54 -31 18 -38 27 -34 45 3 15 -3 30 -16 42 -34
30 -27 56 13 56 38 0 50 -17 40 -57 -5 -18 -3 -24 5 -19 6 4 11 1 11 -8 0 -19
40 -32 50 -16 4 7 5 30 3 51 -4 27 -1 43 11 54 24 25 19 43 -14 50 -20 4 -30
13 -30 25 0 10 -9 21 -19 25 -20 6 -41 52 -41 90 0 12 9 32 20 45 11 13 20 30
20 38 0 13 -2 13 -17 0 -24 -20 -43 -12 -43 18 0 17 -6 24 -20 24 -17 0 -20
-7 -20 -48 0 -57 -5 -65 -32 -51 -14 8 -25 6 -43 -5 -21 -14 -24 -14 -29 0
-15 39 -7 54 28 54 35 0 63 21 51 40 -3 5 -15 10 -26 10 -23 0 -24 4 -1 42 16
28 16 30 0 39 -22 12 -68 103 -68 134 0 12 -7 42 -15 65 -8 23 -15 53 -15 66
0 33 -45 188 -72 249 -31 69 -75 132 -151 217 -36 40 -80 88 -96 107 -17 19
-31 38 -31 43 0 5 -26 25 -57 45 -32 20 -74 51 -94 68 -106 94 -270 204 -397
264 -131 63 -175 71 -391 71 -109 0 -200 -3 -203 -6z m281 -565 c35 -16 76
-29 91 -29 27 0 28 -1 35 -77 7 -84 25 -117 57 -107 28 9 58 -5 58 -28 0 -11
8 -33 17 -49 17 -28 17 -31 -2 -67 -11 -20 -39 -55 -63 -78 -36 -33 -44 -47
-45 -80 -1 -21 2 -49 6 -61 7 -18 1 -29 -26 -57 -19 -19 -37 -40 -39 -46 -2
-7 -71 -12 -219 -13 -190 -3 -220 -5 -244 -21 -32 -21 -81 -18 -144 10 -47 20
-53 34 -16 34 14 0 43 9 65 20 22 11 51 20 65 20 18 0 28 7 35 26 27 70 -3
174 -50 174 -31 0 -70 26 -70 47 0 36 -35 74 -77 85 -60 15 -70 30 -43 68 15
22 20 38 15 58 -6 31 25 82 51 82 8 0 40 27 72 60 l58 60 55 -7 c30 -3 65 -11
79 -18 21 -11 35 -10 95 11 79 26 94 25 184 -17z m341 -611 c0 -5 -11 -20 -25
-34 -23 -23 -27 -23 -57 -11 -28 12 -33 19 -31 46 0 19 11 43 25 58 l23 25 33
-38 c17 -20 32 -41 32 -46z m-245 -462 c9 -13 25 -49 36 -81 11 -31 33 -82 49
-112 33 -62 40 -134 15 -166 -7 -11 -11 -25 -8 -33 12 -32 -98 -45 -160 -19
-56 23 -103 19 -129 -10 -17 -20 -31 -25 -70 -25 -31 0 -48 4 -49 13 -5 50 24
90 81 113 34 14 58 51 104 159 7 17 21 47 30 68 9 21 16 47 16 58 0 57 55 80
85 35z m-2255 -111 c0 -16 -6 -25 -15 -25 -9 0 -15 9 -15 25 0 16 6 25 15 25
9 0 15 -9 15 -25z m1898 -144 c5 -79 -3 -98 -47 -120 -36 -19 -134 -109 -173
-159 -23 -29 -31 -28 -73 9 -46 41 -54 57 -66 132 -6 39 -20 74 -35 95 -46 59
-35 67 96 68 75 0 134 6 170 17 30 9 71 15 90 14 l35 -2 3 -54z m-1738 -26 c0
-8 -7 -15 -15 -15 -8 0 -15 7 -15 15 0 8 7 15 15 15 8 0 15 -7 15 -15z m466
-131 c-9 -36 -30 -54 -60 -54 -34 0 -34 27 -1 42 14 6 25 15 25 19 0 4 8 10
18 12 9 3 19 5 21 6 2 0 0 -11 -3 -25z m-477 -15 c41 -15 40 -29 -4 -29 -28 0
-35 4 -35 20 0 23 -2 23 39 9z m521 -79 c0 -5 -7 -10 -15 -10 -8 0 -15 5 -15
10 0 6 7 10 15 10 8 0 15 -4 15 -10z m1240 -80 c14 -48 12 -93 -3 -114 -17
-23 -47 -11 -47 19 0 23 -17 35 -51 35 -14 0 -19 7 -19 29 0 21 11 39 42 66
39 36 42 37 55 19 7 -10 18 -34 23 -54z m-1143 38 c-3 -8 -6 -5 -6 6 -1 11 2
17 5 13 3 -3 4 -12 1 -19z m-190 -4 c4 -10 -1 -22 -10 -29 -10 -7 -17 -20 -17
-30 0 -25 -39 -65 -62 -65 -26 0 -26 73 0 92 10 7 21 21 25 31 8 22 55 23 64
1z m-167 -35 c0 -5 -7 -9 -15 -9 -8 0 -15 7 -15 15 0 9 6 12 15 9 8 -4 15 -10
15 -15z m252 -13 c-2 -9 -12 -26 -23 -37 -10 -10 -19 -26 -19 -35 0 -20 -24
-13 -28 8 -2 9 4 23 13 31 8 9 15 19 15 24 0 14 23 34 35 30 5 -2 9 -12 7 -21z
m1508 -152 c22 -15 40 -31 40 -37 0 -13 -117 -4 -131 10 -16 16 7 53 32 53 10
0 37 -12 59 -26z m-1746 -30 c28 -11 17 -23 -21 -26 -33 -3 -38 -7 -41 -31 -3
-21 -8 -27 -19 -23 -8 3 -19 6 -24 6 -5 0 -9 11 -9 25 0 20 5 25 24 25 13 0
26 7 30 15 6 16 33 20 60 9z m146 -169 c0 -8 -7 -15 -15 -15 -8 0 -15 7 -15
15 0 8 7 15 15 15 8 0 15 -7 15 -15z m1725 -16 c193 -12 205 -14 205 -38 0
-49 -69 -70 -245 -73 -110 -2 -141 1 -201 20 -82 25 -106 45 -83 68 31 31 111
36 324 23z m-2005 -50 c0 -24 -4 -30 -17 -27 -13 2 -19 14 -21 41 -3 36 -2 38
17 27 14 -7 21 -21 21 -41z m230 41 c0 -5 11 -10 25 -10 16 0 25 -6 25 -16 0
-12 -12 -15 -57 -14 -32 0 -73 -3 -90 -6 -29 -5 -33 -4 -33 15 0 19 6 21 49
21 28 0 53 5 56 10 3 6 10 10 16 10 5 0 9 -4 9 -10z m50 -135 c0 -9 -9 -15
-25 -15 -16 0 -25 6 -25 15 0 9 9 15 25 15 16 0 25 -6 25 -15z m-206 -76 c7
-46 4 -54 -19 -46 -10 4 -15 20 -15 47 0 55 25 54 34 -1z m391 -544 c0 -10 -5
-20 -11 -22 -13 -4 -27 24 -18 38 9 15 29 4 29 -16z m-50 5 c-3 -5 -10 -10
-16 -10 -5 0 -9 5 -9 10 0 6 7 10 16 10 8 0 12 -4 9 -10z m2272 -72 c38 -41
283 -400 314 -460 26 -51 6 -49 -46 3 -67 69 -142 93 -212 69 -29 -11 -63 -55
-63 -83 0 -8 -29 -38 -64 -66 -48 -37 -66 -58 -71 -83 -10 -47 -73 -156 -97
-169 -20 -11 -21 -9 -15 30 10 81 -36 54 -59 -34 -21 -79 -33 -102 -45 -84
-13 21 -40 0 -67 -52 -29 -55 -52 -80 -124 -135 -60 -47 -79 -52 -98 -29 -13
15 -5 71 11 81 15 9 110 141 141 195 27 47 80 98 162 159 26 19 70 54 97 78
28 23 68 54 89 68 41 27 64 58 123 165 41 73 47 119 23 191 -8 24 -17 61 -20
83 -4 22 -9 52 -12 68 -7 33 5 35 33 5z m954 -1230 c14 -26 4 -34 -26 -20 -31
14 -35 53 -5 45 11 -3 25 -14 31 -25z m19 -47 c0 -5 -9 -11 -20 -14 -22 -6
-28 8 -7 16 19 8 27 8 27 -2z m-55 -51 c6 -17 22 -25 47 -21 17 2 39 -48 32
-73 -4 -18 -1 -33 9 -44 19 -20 43 -150 31 -162 -5 -5 -38 -10 -74 -11 -56 -3
-71 1 -108 24 -33 21 -42 33 -40 50 3 22 9 23 58 12 19 -5 33 1 59 24 33 30
34 51 2 51 -30 0 -52 33 -45 67 3 17 1 40 -6 52 -9 17 -9 26 1 37 16 19 26 18
34 -6z m-1475 -210 c0 -5 -4 -10 -10 -10 -5 0 -10 5 -10 10 0 6 5 10 10 10 6
0 10 -4 10 -10z"/>
<path d="M2867 4263 c-12 -11 -8 -23 8 -23 8 0 15 7 15 15 0 16 -12 20 -23 8z"/>
<path d="M554 3709 c3 -17 6 -38 6 -45 0 -8 5 -14 10 -14 18 0 12 77 -6 84
-14 5 -16 1 -10 -25z"/>
<path d="M370 3685 c0 -8 5 -15 10 -15 6 0 10 7 10 15 0 8 -4 15 -10 15 -5 0
-10 -7 -10 -15z"/>
<path d="M960 3615 c0 -8 7 -15 15 -15 8 0 15 7 15 15 0 8 -7 15 -15 15 -8 0
-15 -7 -15 -15z"/>
<path d="M380 3578 c0 -15 5 -30 10 -33 13 -8 13 25 0 45 -8 12 -10 9 -10 -12z"/>
<path d="M790 3565 c0 -9 9 -15 25 -15 16 0 25 6 25 15 0 9 -9 15 -25 15 -16
0 -25 -6 -25 -15z"/>
<path d="M983 3545 c-13 -13 -23 -29 -23 -34 0 -11 110 40 110 52 0 18 -66 4
-87 -18z"/>
<path d="M333 3523 c-10 -3 -10 -7 0 -18 13 -14 41 0 31 16 -6 10 -12 10 -31
2z"/>
<path d="M580 3521 c0 -6 5 -13 10 -16 6 -3 10 1 10 9 0 9 -4 16 -10 16 -5 0
-10 -4 -10 -9z"/>
<path d="M673 3483 c-18 -7 -16 -40 3 -47 29 -11 64 -6 64 8 0 40 -27 56 -67
39z"/>
<path d="M863 3478 c2 -7 10 -13 17 -13 7 0 15 6 18 13 2 7 -5 12 -18 12 -13
0 -20 -5 -17 -12z"/>
<path d="M1127 3473 c-14 -13 -6 -33 13 -33 13 0 20 7 20 20 0 19 -20 27 -33
13z"/>
<path d="M790 3405 c0 -8 7 -15 15 -15 8 0 15 7 15 15 0 8 -7 15 -15 15 -8 0
-15 -7 -15 -15z"/>
<path d="M870 3351 c0 -5 -3 -16 -6 -25 -4 -10 -1 -16 9 -16 8 0 17 -7 21 -15
3 -8 14 -15 24 -15 10 0 28 -9 40 -20 27 -25 39 -25 47 1 5 15 -1 29 -24 51
-17 17 -31 34 -31 39 0 5 -18 9 -40 9 -22 0 -40 -4 -40 -9z"/>
<path d="M1000 3145 c0 -8 7 -15 15 -15 8 0 15 7 15 15 0 8 -7 15 -15 15 -8 0
-15 -7 -15 -15z"/>
<path d="M1230 2701 c0 -11 4 -22 8 -25 14 -9 35 12 29 28 -9 23 -37 20 -37
-3z"/>
<path d="M1293 2704 c-7 -19 20 -49 36 -40 6 4 11 18 11 32 0 17 -5 24 -20 24
-11 0 -23 -7 -27 -16z"/>
<path d="M1406 2565 c-7 -20 23 -33 34 -14 5 7 6 17 4 21 -9 13 -32 9 -38 -7z"/>
<path d="M1455 2470 c-3 -5 -1 -10 4 -10 6 0 11 5 11 10 0 6 -2 10 -4 10 -3 0
-8 -4 -11 -10z"/>
<path d="M1207 2243 c-4 -3 -7 -23 -7 -44 0 -29 -5 -39 -20 -44 -24 -8 -27
-47 -5 -65 22 -18 35 -3 35 41 0 32 4 39 19 39 17 0 31 18 31 40 0 11 -29 40
-39 40 -4 0 -11 -3 -14 -7z"/>
<path d="M1474 2109 c-3 -6 -22 -17 -40 -25 -31 -13 -49 -47 -22 -41 6 1 17
-8 23 -21 10 -18 14 -20 23 -9 6 7 9 23 5 35 -4 17 -1 22 15 22 11 0 27 11 36
25 16 24 16 25 -8 25 -14 0 -28 -5 -32 -11z"/>
<path d="M1310 2079 c0 -24 23 -21 28 4 2 10 -3 17 -12 17 -10 0 -16 -9 -16
-21z"/>
<path d="M1286 1948 c-9 -35 -7 -68 4 -68 6 0 10 20 10 45 0 50 -4 57 -14 23z"/>
<path d="M1363 1912 c-17 -11 -34 -59 -27 -77 7 -18 24 -20 24 -2 0 7 9 29 20
50 20 36 13 48 -17 29z"/>
<path d="M4860 1330 c0 -5 7 -10 15 -10 8 0 15 5 15 10 0 6 -7 10 -15 10 -8 0
-15 -4 -15 -10z"/>
<path d="M1253 1185 c-1 -20 -4 -51 -7 -70 -5 -25 -3 -34 11 -39 26 -10 45 17
51 73 4 45 3 51 -12 45 -10 -4 -22 0 -29 11 -11 14 -13 12 -14 -20z"/>
<path d="M1125 1110 c-3 -6 1 -13 10 -16 19 -8 30 0 20 15 -8 14 -22 14 -30 1z"/>
<path d="M1262 1043 c5 -25 28 -28 28 -4 0 12 -6 21 -16 21 -9 0 -14 -7 -12
-17z"/>
<path d="M4867 924 c3 -7 18 -19 34 -26 16 -7 29 -16 29 -20 0 -5 5 -8 10 -8
6 0 10 14 10 30 0 21 -5 30 -17 32 -64 5 -71 4 -66 -8z"/>
<path d="M5060 854 c0 -8 -4 -14 -10 -14 -5 0 -10 -6 -10 -14 0 -12 -34 -30
-52 -27 -20 3 -5 -30 20 -43 15 -8 42 -28 61 -45 19 -17 38 -31 43 -31 10 0
10 151 0 166 -12 18 -52 24 -52 8z"/>
<path d="M750 819 c0 -14 36 -76 60 -104 10 -11 21 -31 25 -44 4 -13 22 -43
40 -67 18 -24 41 -67 50 -96 9 -29 32 -78 50 -108 26 -43 75 -153 75 -167 0
-15 -32 10 -95 72 -58 58 -82 75 -107 77 -44 4 -49 -24 -11 -66 17 -17 40 -48
53 -70 19 -31 21 -42 12 -57 -16 -26 -16 -27 17 -34 16 -3 38 -17 51 -30 17
-18 20 -27 11 -43 -6 -11 -17 -22 -26 -26 -8 -3 -15 -17 -15 -31 0 -25 1 -25
74 -25 66 0 75 2 81 20 8 26 32 26 40 0 5 -16 15 -20 56 -20 27 0 49 2 49 5 0
3 -12 29 -26 57 -14 28 -33 74 -41 101 -8 28 -21 60 -28 71 -7 12 -15 36 -19
54 -3 19 -15 45 -26 59 -11 14 -20 32 -20 41 0 17 -88 183 -136 257 -70 107
-194 218 -194 174z m367 -734 c9 -25 -4 -29 -17 -6 -7 15 -7 21 0 21 6 0 13
-7 17 -15z"/>
<path d="M4923 589 c-4 -16 -11 -19 -32 -14 -24 5 -29 1 -49 -46 l-21 -52 20
-28 c19 -28 19 -68 -2 -95 -5 -6 -8 -88 -6 -183 l2 -172 143 2 142 1 0 179 c0
113 -4 179 -10 179 -5 0 -10 -11 -10 -25 0 -15 -7 -39 -15 -54 -8 -16 -13 -41
-12 -57 2 -26 -1 -29 -29 -30 -47 -1 -68 -12 -56 -27 6 -6 13 -28 17 -48 7
-36 7 -36 -40 -49 -32 -9 -49 -10 -56 -3 -7 7 -9 54 -5 129 3 66 5 148 5 182
0 62 1 65 40 101 46 43 51 66 20 105 -25 31 -39 33 -46 5z"/>
<path d="M4680 375 c0 -8 5 -15 10 -15 6 0 10 -4 10 -10 0 -5 -10 -9 -22 -7
-15 1 -23 -4 -26 -16 -3 -16 0 -18 20 -11 12 4 38 6 56 5 40 -2 43 19 6 48
-31 25 -54 27 -54 6z"/>
<path d="M2350 26 c0 -7 11 -16 25 -18 30 -6 33 7 6 22 -26 13 -31 13 -31 -4z"/>
<path d="M2663 20 c-35 -14 -27 -20 28 -20 36 0 49 4 47 13 -6 15 -46 19 -75
7z"/>
<path d="M1493 3 c15 -2 37 -2 50 0 12 2 0 4 -28 4 -27 0 -38 -2 -22 -4z"/>
</g>
</svg>
